<svg width="100" height="100" viewBox="0 0 100 100" fill="none" xmlns="http://www.w3.org/2000/svg">
<path fill-rule="evenodd" clip-rule="evenodd" d="M49.5 97C75.1812 97 96 76.1812 96 50.5C96 24.8188 75.1812 4 49.5 4C23.8188 4 3 24.8188 3 50.5C3 76.1812 23.8188 97 49.5 97ZM50 85C69.33 85 85 69.33 85 50C85 30.67 69.33 15 50 15C30.67 15 15 30.67 15 50C15 69.33 30.67 85 50 85Z" fill="white"/>
<rect x="35.6972" y="29.1261" width="49.0412" height="10.0084" transform="rotate(45 35.6972 29.1261)" fill="white"/>
<rect x="70.3746" y="36.2031" width="49.0412" height="10.0084" transform="rotate(135 70.3746 36.2031)" fill="white"/>
</svg>
